<svg width="61" height="48" fill="none" xmlns="http://www.w3.org/2000/svg"><path fill-rule="evenodd" clip-rule="evenodd" d="M59.598 43.861a.52.52 0 01-.036.083.172.172 0 01-.056.073.746.746 0 01-.023.035l-.01.013a1.714 1.714 0 01-.078.097 1.282 1.282 0 01-.133.121 1.769 1.769 0 01-.106.064l-.033.018a.61.61 0 01-.016.008.593.593 0 01-.063.026l-.012.004-.015.006a.204.204 0 00-.012.005l-.006.003a.212.212 0 01-.038.013l-.008.001h-.005c-.004 0-.008 0-.013.002a.893.893 0 01-.226.03.39.39 0 00-.143.017c-.044.05-.122.304-.172.464l-.005.016c-.183.593-.567 1.827-2.116 1.827-1.326 0-1.984-.888-2.466-1.538l-.004-.005c-.451-.614-.623-.78-.961-.78-.34 0-.508.166-.962.778l-.004.005c-.481.65-1.14 1.538-2.468 1.538-1.326 0-1.984-.889-2.466-1.538l-.003-.005c-.452-.612-.624-.778-.962-.778-.336 0-.508.166-.962.78-.48.65-1.14 1.543-2.47 1.543-1.327 0-1.986-.888-2.468-1.538l-.003-.005c-.452-.612-.623-.778-.962-.778-.339 0-.508.166-.962.778-.48.65-1.138 1.543-2.47 1.543-1.325 0-1.983-.888-2.465-1.538l-.004-.005c-.451-.612-.623-.778-.961-.778-.337 0-.508.166-.962.78-.48.651-1.14 1.543-2.47 1.543-1.325 0-1.984-.888-2.466-1.538l-.003-.004c-.451-.612-.623-.779-.962-.779-.336 0-.508.167-.962.781-.48.65-1.14 1.543-2.47 1.543a1.4 1.4 0 01-1.074-.487c-.656-.754-.524-2.04-.254-4.077l.005-.035c.096-.737.244-1.86.195-2.407-1.757.346-4.25 3.9-5.543 6.484a.937.937 0 01-.84.522c-.018 0-.037 0-.056-.002a.937.937 0 01-.828-.622c-.216-.603-2.065-5.974-.143-8.945.72-1.11 1.886-1.75 3.377-1.847 1.296-.085 1.888-.436 2.001-.714.075-.185-.044-.5-.308-.802-.7-.805-2.267-1.45-4.05-.961-2.471.674-5.242 4.018-6.175 7.454-.327 1.208-.68 3.444.656 4.828a.957.957 0 01-.019 1.343.934.934 0 01-1.331-.02c-1.475-1.525-1.872-3.889-1.122-6.651.971-3.58 4.043-7.844 7.5-8.786 2.575-.703 4.844.266 5.954 1.54.77.88 1 1.894.635 2.782-.317.771-1.201 1.725-3.619 1.884-.9.06-1.529.384-1.921.99-.793 1.224-.61 3.396-.25 5.128 1.412-2.285 3.888-5.605 6.451-5.525.414.015.788.195 1.051.51.264.314.393.72.44 1.223 1.731-1.156 4.257-2.3 9.243-2.808-5.405-22.095 4.755-34.533 5.216-35.081a.118.118 0 01.012-.01.96.96 0 01.101-.097.388.388 0 01.059-.05c.029-.02.057-.035.088-.052l.02-.012a.475.475 0 01.059-.033.92.92 0 01.136-.045l.033-.009a.9.9 0 01.214-.027l.139.005c.277 0 .538.121.717.335.46.545 10.57 12.92 5.263 34.908 13.88.82 15.578 6.41 15.643 6.654a.12.12 0 01.003.016l.002.015.014.093c.005.033.01.066.01.1v.014l.002.006v.008l-.001.027-.003.022v.005c-.003.034-.005.07-.012.102a1.09 1.09 0 01-.047.176zm-20.79-4.314h2.432c5.355-17.673.317-29.587-2.432-34.317v34.317zM36.927 5.479v34.068h-2.293c-5.252-17.33-.478-29.168 2.293-34.068zm19.672 38.94l.005-.014c.11-.356.298-.94.761-1.35-1.041-1.33-4.327-4.059-13.863-4.555-.207.752-.43 1.514-.675 2.288a.943.943 0 01-.896.662H33.94a.943.943 0 01-.896-.662 70.608 70.608 0 01-.628-2.131c-6.046.574-8.21 2.105-9.863 3.396l-.022.166c-.01.087-.022.175-.035.268-.091.693-.232 1.76-.204 2.33.171-.102.345-.31.628-.695l.003-.004c.482-.65 1.14-1.538 2.468-1.538 1.326 0 1.985.888 2.466 1.538l.004.004c.451.612.623.779.962.779.338 0 .508-.167.962-.779l.003-.004c.482-.65 1.14-1.538 2.468-1.538 1.326 0 1.984.888 2.466 1.538l.003.004c.454.612.626.779.962.779.339 0 .508-.167.962-.779.48-.65 1.139-1.542 2.47-1.542 1.325 0 1.984.888 2.465 1.538l.004.004c.454.615.626.781.964.781.339 0 .508-.166.962-.778l.003-.005c.482-.65 1.14-1.538 2.469-1.538 1.325 0 1.984.888 2.466 1.538l.003.005c.452.612.623.778.962.778.338 0 .51-.166.964-.78.48-.651 1.14-1.543 2.47-1.543 1.328 0 1.986.888 2.468 1.538l.003.004c.454.612.626.779.962.779.106 0 .144-.017.144-.017.043-.05.121-.304.171-.464z" fill="#fff"/><path d="M59.562 43.944l-.44-.238.76.623-.32-.385zm.036-.083l-.462-.19-.008.016-.005.017.475.157zm-.035.083l.448.222-.768-.607.32.385zm-.057.073l-.279-.414-.087.058-.057.09.423.266zm-.023.035l.407.29-.407-.29zm-.01.013l.407.292-.407-.292zm-.016.024l.392.31.01-.012.009-.013-.411-.285zm-.061.073l.355.352.01-.01.008-.009-.373-.333zm-.059.057l-.334-.372-.01.01-.011.01.355.352zm-.075.064l.279.415.008-.006.009-.006-.296-.403zm-.07.045l.224.447.018-.009.016-.01-.259-.428zm-.036.02l.244.436-.244-.437zm-.033.017l.228.445-.228-.445zm-.016.008l-.212-.453-.007.003-.007.004.226.446zm-.063.026l.159.474.006-.002.007-.003-.172-.47zm0 0l-.158-.474-.007.002-.007.002.172.47zm-.012.004l-.172-.47-.004.002.176.468zm-.015.006l-.176-.468.176.468zm-.012.005l-.197-.46.197.46zm-.006.003l.2.457h.001l-.2-.457zm-.038.013l-.11-.488-.012.004.122.484zm-.008.001l.028.5-.028-.5zm-.018.002l-.122-.485h-.004l.126.485zm-.37.047l-.201-.457-.104.046-.074.086.38.325zm-.171.464l.477.149-.477-.149zm-.005.016l-.477-.149.477.149zm-4.582.289l.401-.298-.401.298zm-.004-.005l-.402.296v.002l.402-.298zm-1.923-.002l-.402-.298.402.298zm-.004.005l.402.297-.402-.297zm-4.934 0l.402-.298-.402.297zm-.003-.005l-.403.297h.001l.402-.297zm-1.924.002l-.402-.297.402.297zm-4.938.005l.402-.298-.402.298zm-.003-.005l-.402.297v.001l.402-.298zm-1.924 0l-.402-.297.402.297zm-4.935.005l-.402.298.402-.298zm-.004-.005l-.402.297v.001l.403-.298zm-1.923.003l-.402-.297.402.297zm-4.936.004l-.401.298.401-.298zm-.003-.004l-.402.297.402-.297zm-1.924.002l-.402-.297.402.297zm-3.544 1.056l.379-.326-.002-.002-.377.328zm-.254-4.077l.496.066-.496-.066zm.005-.035l-.496-.065.496.065zm.195-2.407l.498-.044-.05-.554-.545.107.097.491zm-5.543 6.484l-.447-.224v.002l.447.222zm-.896.52l.063-.496-.017-.003h-.017l-.029.499zm-.828-.622l.471-.168v-.001l-.47.169zm-.143-8.945l-.42-.272.42.272zm3.377-1.847l.032.5-.032-.5zm2.001-.714l.463.188-.463-.188zm-.308-.802l-.377.328.377-.328zm-4.05-.961l.132.482-.132-.482zm-6.175 7.454l-.483-.13.483.13zm.656 4.828l.36-.347-.36.347zm-.019 1.343l.35.357-.35-.357zm-1.331-.02l.36-.346-.36.347zm-1.122-6.651l.483.13-.483-.13zm7.5-8.786l.131.482-.131-.482zm5.954 1.54l-.377.329.377-.329zm.635 2.782l.463.19-.463-.19zm-3.619 1.884l-.033-.499.033.5zm-1.921.99l-.42-.273v.001l.42.272zm-.25 5.128l-.49.102.256 1.23.66-1.069-.426-.263zm6.451-5.525l.017-.5h-.001l-.016.5zm1.051.51l-.383.32v.002l.383-.321zm.44 1.223l-.498.046.078.835.698-.465-.278-.416zm9.243-2.808l.05.498.572-.059-.136-.558-.486.12zM37.146 1.71l-.355-.352-.015.015-.013.015.383.322zm.012-.01l-.312-.39.312.39zm.014-.014l-.37-.337-.016.019-.016.02.402.298zm.087-.083l.325.38.015-.013.015-.015-.355-.352zm.059-.05l-.28-.414.28.414zm.088-.052l-.224-.448-.01.006-.012.006.246.436zm0 0l.223.447.011-.006.011-.006-.245-.435zm.02-.012l.245.436.011-.006.01-.007-.266-.423zm.059-.033l-.196-.46L37.28 1l.205.456zm.136-.045L37.55.916l-.026.004-.025.006.122.485zm.033-.009l-.16-.474.16.474zm.016-.005l-.109-.488-.015.003-.014.004.138.48zm.198-.022l.017-.5h-.018v.5zm.139.005l-.017.5h.017v-.5zm.717.335l-.383.32.001.002.382-.322zm5.263 34.908l-.486-.117-.14.58.597.036.03-.5zm15.643 6.654l.486-.12-.003-.01-.483.13zm.005.031l.495-.075-.004-.023-.005-.022-.486.12zm.014.093l.495-.07v-.006l-.495.076zm.01.114l.498-.057v-.005l-.497.062zm.002.006l.497-.048v-.009l-.497.057zm-.001.035l.497.05-.497-.05zm-.003.022l-.496-.062.496.062zm0 .005l-.497-.061-.001.013-.001.013.498.035zm-.012.102l-.49-.103-.002.01-.002.012.494.081zm-.02.086l.48.146.003-.013.003-.013-.485-.12zm-.007.028l-.482-.136.482.136zM41.24 39.547v.5h.37l.108-.355-.478-.145zm-2.432 0h-.5v.5h.5v-.5zm0-34.317l.432-.252-.932-1.604V5.23h.5zm-1.881 34.317v.5h.5v-.5h-.5zm0-34.068h.5v-1.9l-.935 1.654.435.246zm-2.293 34.068l-.479.145.108.355h.37v-.5zm21.97 4.858l.477.148.232-.746-.774.102.065.496zm-.005.015l-.477-.148.477.148zm.004-.015l-.477-.149-.232.746.774-.102-.065-.495zm.762-1.35l.332.373.352-.312-.29-.37-.394.308zM43.502 38.5l.026-.5-.402-.02-.106.387.482.133zm-.675 2.288l.477.15-.477-.15zm-9.783 0l-.477.15.477-.15zm-.628-2.131l.482-.135-.113-.403-.416.04.047.498zm-9.863 3.396l-.308-.394-.161.126-.027.202.496.066zm-.022.166l-.496-.063.496.063zm-.035.268l-.495-.069v.003l.495.066zm-.204 2.33l-.5.025.041.83.714-.425-.255-.43zm.628-.695l-.402-.298-.001.002.403.296zm.003-.004l.402.297-.402-.297zm4.934 0l-.401.297.401-.297zm.004.004l.402-.297-.402.297zm1.924 0l-.402-.298.402.298zm.003-.004l.401.297-.401-.297zm4.934 0l-.402.297.402-.297zm.003.004l.402-.298-.402.298zm1.924 0l.402.298v-.001l-.402-.297zm4.935-.004l-.401.297.401-.297zm.004.004l.402-.297-.402.297zm1.926.003l-.402-.298.402.298zm.003-.005l-.401-.298.401.298zm4.935 0l-.402.298.402-.298zm.003.005l.402-.297v-.001l-.402.298zm1.926-.003l.402.297-.402-.297zm4.938-.004l-.402.297.402-.297zm.003.004l.402-.298-.402.298zm1.105.762l.202.457.104-.046.074-.086-.38-.325zm3.575-.702c.03-.057.054-.113.07-.164l-.95-.314a.05.05 0 01-.001.005l.001-.003.88.476zm-.759-.623l.639.77-.639-.77zm.542.873c.148-.1.21-.236.226-.266l-.896-.444c-.014.027.02-.058.112-.12l.558.83zm.106-.09a1.21 1.21 0 00.038-.058l-.846-.533-.008.012.816.579zm-.01.014l.009-.013-.814-.582-.01.014.814.581zm-.013.018l.012-.017-.813-.583a2.112 2.112 0 00-.02.03l.82.57zm-.099.121c.031-.035.06-.07.08-.096l-.784-.621a1.3 1.3 0 01-.042.051l.746.666zm-.098.096c.034-.03.062-.06.08-.077l-.71-.704a.904.904 0 01-.038.037l.668.744zm-.113.095c.04-.03.088-.068.134-.115l-.71-.704a.134.134 0 01-.016.013l.592.806zm-.108.07c.031-.019.064-.04.09-.058l-.557-.83-.05.033.517.855zm-.05.028l.013-.008.004-.001-.451-.893a.637.637 0 00-.054.03l.488.872zm-.049.026l.05-.026-.49-.873-.012.007-.005.003.457.89zm-.033.017a1.08 1.08 0 00.033-.017l-.457-.89h.001l.423.907zm-.102.041c.017-.006.065-.023.116-.048l-.45-.893.009-.005-.005.003c-.004 0-.007.002-.013.004l.343.94zm-.013.005l-.317-.948.317.948zm.002 0l.012-.005-.345-.939-.012.005.345.939zm-.011.004l.015-.006-.353-.936-.015.006.353.936zm.009-.004l-.009.004-.354-.936a.692.692 0 00-.032.013l.395.92zm-.003.001h.003l-.395-.92a.757.757 0 01-.01.005l.402.915zm-.13.044a.637.637 0 00.13-.044l-.402-.915.006-.002a.36.36 0 01.047-.014l.22.975zm-.09.013a.538.538 0 00.103-.016l-.244-.97a.464.464 0 01.087-.013l.055.999zm-.032 0h.01a.7.7 0 00.023 0l-.055-.999h.022v1zm.11-.013c-.064.015-.117.014-.11.014v-1c-.001 0-.063-.002-.135.016l.244.97zm-.349.046c.129 0 .247-.02.352-.047l-.252-.968a.397.397 0 01-.1.015v1zm-.143-.484l.201.458h-.001l-.002.001-.004.002-.007.003a.852.852 0 01-.036.012.284.284 0 01-.03.008c-.01.002-.005 0 .022 0v-1a1.114 1.114 0 00-.28.035.6.6 0 00-.05.017l-.008.004-.004.001-.001.001h-.001l.2.458zm.306.613a8.102 8.102 0 01.115-.345l.003-.006-.01.018a.4.4 0 01-.034.045l-.76-.65c-.068.079-.106.172-.118.2a4.672 4.672 0 00-.151.441l.955.297zm-.005.015l.005-.015-.956-.297-.004.015.955.297zm-2.594 2.179c.932 0 1.555-.382 1.958-.875.381-.467.546-1.014.636-1.305l-.955-.295c-.094.302-.213.67-.456.968-.222.272-.566.507-1.183.507v1zm-2.868-1.74c.474.639 1.268 1.74 2.868 1.74v-1c-1.052 0-1.575-.675-2.065-1.336l-.803.596zm-.003-.005l.003.005.803-.596-.003-.005-.803.596zm-.56-.578c.042 0 .057.005.062.006a.19.19 0 01.056.037c.087.073.209.218.44.533l.806-.592c-.22-.299-.41-.545-.605-.708a1.122 1.122 0 00-.76-.276v1zm-.56.576c.233-.315.354-.46.442-.533a.192.192 0 01.056-.037.183.183 0 01.062-.006v-1c-.283 0-.524.08-.759.275-.195.163-.385.408-.605.705l.803.596zm-.004.004l.003-.004-.803-.596-.003.005.803.595zm-2.87 1.74c1.602 0 2.396-1.1 2.87-1.74l-.803-.595c-.49.66-1.013 1.336-2.067 1.336v1zm-2.868-1.74c.474.64 1.268 1.74 2.868 1.74v-1c-1.051 0-1.575-.675-2.064-1.335l-.804.595zm-.003-.004l.003.004.804-.595-.004-.005-.803.596zm-.56-.576c.042 0 .057.005.062.006a.195.195 0 01.056.037c.088.073.21.217.441.532l.805-.594c-.22-.298-.41-.543-.606-.706a1.123 1.123 0 00-.758-.275v1zm-.56.577c.233-.315.355-.46.444-.534a.197.197 0 01.056-.037.166.166 0 01.06-.006v-1c-.282 0-.523.08-.758.276-.195.163-.386.408-.606.707l.804.594zm-2.871 1.746c1.603 0 2.399-1.106 2.871-1.746l-.805-.593c-.487.66-1.013 1.339-2.066 1.339v1zm-2.87-1.74c.474.64 1.267 1.74 2.87 1.74v-1c-1.054 0-1.578-.676-2.067-1.336l-.803.596zm-.004-.005l.004.005.803-.596-.004-.004-.803.595zm-.56-.576c.042 0 .058.005.062.007a.195.195 0 01.056.037c.088.073.21.217.442.531l.804-.593c-.22-.298-.41-.543-.605-.707a1.123 1.123 0 00-.759-.275v1zm-.56.576c.233-.315.355-.46.443-.533a.192.192 0 01.055-.037.185.185 0 01.062-.006v-1c-.282 0-.524.08-.758.276-.195.163-.385.407-.606.705l.804.595zm-2.871 1.745c1.606 0 2.4-1.106 2.872-1.746l-.805-.593c-.488.66-1.011 1.339-2.067 1.339v1zm-2.868-1.74c.474.639 1.268 1.74 2.868 1.74v-1c-1.051 0-1.575-.675-2.064-1.336l-.804.596zm-.003-.005l.003.005.803-.596-.003-.004-.803.595zm-.56-.576c.042 0 .057.005.062.007a.195.195 0 01.056.037c.088.073.21.217.441.531l.805-.593c-.22-.298-.41-.543-.606-.707a1.123 1.123 0 00-.758-.275v1zm-.56.578c.233-.316.355-.46.443-.534a.192.192 0 01.056-.038.177.177 0 01.06-.006v-1c-.281 0-.523.08-.757.276-.195.163-.386.409-.607.708l.805.594zm-2.872 1.745c1.604 0 2.4-1.105 2.872-1.745l-.805-.594c-.487.66-1.013 1.34-2.067 1.34v1zm-2.867-1.74c.474.64 1.267 1.74 2.867 1.74v-1c-1.05 0-1.574-.675-2.064-1.335l-.803.595zm-.004-.005l.004.005.803-.595-.003-.005-.804.596zm-.56-.576c.043 0 .058.005.062.007a.189.189 0 01.057.037c.087.073.209.217.44.532l.805-.594c-.22-.298-.41-.543-.605-.706a1.123 1.123 0 00-.759-.276v1zm-.56.578c.233-.315.356-.46.444-.534a.167.167 0 01.056-.037.179.179 0 01.06-.007v-1c-.282 0-.523.08-.757.277-.196.163-.386.408-.607.707l.805.594zm-2.871 1.746c1.603 0 2.4-1.106 2.872-1.746l-.805-.594c-.487.66-1.013 1.34-2.067 1.34v1zm-1.453-.66a1.9 1.9 0 001.453.66v-1a.9.9 0 01-.696-.313l-.757.653zm-.372-4.47c-.134 1.01-.24 1.88-.224 2.597.016.72.158 1.37.597 1.874l.755-.656c-.217-.25-.338-.62-.352-1.241-.015-.625.08-1.415.216-2.442l-.992-.132zm.005-.034l-.005.035.992.13.005-.035-.992-.13zm.193-2.298c.02.222 0 .597-.043 1.04-.042.431-.102.888-.15 1.258l.992.13c.048-.367.11-.84.154-1.292.042-.44.072-.9.043-1.224l-.996.088zm-4.598 6.664c.633-1.265 1.561-2.77 2.541-3.993.49-.612.984-1.143 1.452-1.537.477-.402.884-.625 1.2-.687l-.194-.982c-.562.111-1.125.462-1.65.904-.535.45-1.074 1.035-1.588 1.677a24.703 24.703 0 00-2.655 4.17l.894.448zm-1.286.798c.541 0 1.042-.306 1.287-.8l-.896-.444a.437.437 0 01-.391.244v1zm-.12-.006c.056.007.106.006.12.006v-1h-.013l.019.002-.126.992zm-1.236-.95c.195.544.695.92 1.27.953l.058-.999a.437.437 0 01-.386-.29l-.942.336zm-.092-9.385c-1.064 1.646-1.057 3.889-.805 5.701.255 1.839.784 3.369.898 3.685l.941-.338a18.702 18.702 0 01-.849-3.485c-.246-1.766-.203-3.694.655-5.02l-.84-.543zm3.764-2.074c-1.625.107-2.946.812-3.764 2.074l.84.544c.621-.96 1.633-1.531 2.99-1.62l-.066-.998zm1.571-.403c.02-.051.002.038-.284.155-.26.107-.675.208-1.287.248l.066.998c.684-.045 1.212-.161 1.601-.321.363-.15.697-.375.83-.704l-.926-.376zm-.221-.285c.102.117.162.221.19.294a.244.244 0 01.017.058c0 .002-.003-.025.014-.067l.926.376c.107-.262.05-.532-.023-.724a2.029 2.029 0 00-.371-.595l-.753.658zm-3.541-.808c1.608-.441 2.973.156 3.54.807l.754-.657c-.834-.957-2.602-1.651-4.559-1.114l.265.964zm-5.826 7.103c.447-1.642 1.336-3.274 2.414-4.575 1.085-1.31 2.315-2.229 3.411-2.528l-.263-.965c-1.375.376-2.767 1.466-3.918 2.855-1.16 1.4-2.121 3.157-2.609 4.951l.965.262zm.534 4.35c-.554-.574-.777-1.343-.812-2.154-.035-.812.122-1.617.278-2.196l-.965-.261c-.17.63-.353 1.546-.312 2.5.04.954.309 1.995 1.091 2.805l.72-.695zM9.25 46.88c.566-.557.58-1.47.029-2.046l-.722.693a.457.457 0 01-.009.64l.702.713zm-2.042-.028a1.434 1.434 0 002.04.03l-.698-.716a.434.434 0 01-.622-.008l-.72.694zm-1.244-7.13c-.778 2.865-.394 5.435 1.244 7.13l.72-.695c-1.31-1.356-1.722-3.513-1-6.173l-.964-.262zm7.85-9.137c-1.867.509-3.582 1.896-4.939 3.571-1.362 1.682-2.406 3.704-2.911 5.566l.965.262c.466-1.718 1.442-3.617 2.723-5.198 1.286-1.587 2.836-2.803 4.425-3.237l-.263-.964zm6.463 1.694c-1.235-1.418-3.701-2.448-6.463-1.694l.263.964c2.389-.651 4.461.256 5.446 1.387l.754-.657zm.72 3.3c.454-1.105.141-2.315-.72-3.3l-.753.657c.677.775.824 1.592.549 2.263l.925.38zm-4.048 2.193c1.268-.083 2.18-.378 2.83-.788.657-.414 1.023-.93 1.219-1.405l-.925-.38c-.122.295-.357.643-.826.939-.475.299-1.215.56-2.364.636l.066.998zm-1.535.763c.286-.44.749-.711 1.535-.763l-.066-.998c-1.015.067-1.808.447-2.308 1.216l.84.545zm-.179 4.755c-.176-.846-.305-1.785-.297-2.649.008-.877.156-1.612.476-2.107l-.84-.543c-.472.73-.627 1.693-.636 2.641-.009.96.134 1.974.318 2.861l.979-.203zm5.977-5.923c-1.496-.047-2.886.89-4.025 2.02-1.157 1.145-2.153 2.585-2.867 3.742l.85.525c.698-1.13 1.646-2.492 2.72-3.557 1.093-1.082 2.223-1.764 3.29-1.73l.032-1zm1.42.69a1.914 1.914 0 00-1.419-.69l-.034.999c.274.01.514.127.685.33l.767-.64zm.553 1.495c-.052-.559-.202-1.077-.555-1.497l-.765.643c.173.207.283.5.324.947l.996-.093zm8.694-3.258c-5.052.514-7.66 1.68-9.47 2.889l.556.832c1.651-1.103 4.096-2.225 9.015-2.726l-.1-.995zm4.884-34.906c-.52.619-10.775 13.217-5.319 35.522l.972-.238c-5.353-21.884 4.711-34.163 5.113-34.64l-.766-.644zm.083-.079c-.002.002-.028.022-.055.05l.71.703a.378.378 0 01-.025.023c-.005.004-.01.008-.006.006l-.624-.782zm-.075.079a.45.45 0 01.056-.063l.019-.016.623.782s.017-.013.034-.029a.551.551 0 00.07-.077l-.803-.597zm.163-.165a1.44 1.44 0 00-.131.126l.738.675a.46.46 0 01.043-.04l-.65-.761zm.105-.084a.881.881 0 00-.135.112l.71.704c.004-.004-.002.003-.017.013l-.559-.83zm.121-.074c-.027.016-.073.041-.121.074l.558.83a.841.841 0 01.054-.033l-.49-.871zm.022-.012l.447.895-.447-.895zm-.002 0l-.02.012.491.871.02-.011-.49-.871zm.1-.053c-.058.026-.106.057-.12.066l.533.846.01-.006.002-.002-.016.008L37.28 1zm.219-.074a1.418 1.418 0 00-.21.07l.391.92a.427.427 0 01.063-.02L37.5.926zm-.005.002c-.007.003-.002 0 .005-.001a.38.38 0 01.05-.01l.143.989c.064-.01.12-.03.121-.03l-.319-.948zm.038-.012l-.037.012.318.948.003-.001-.007.002-.277-.96zm.336-.04a1.4 1.4 0 00-.307.033l.219.976a.4.4 0 01.088-.01v-1zm.156.004l-.139-.004-.034 1 .139.004.034-1zm1.083.514a1.432 1.432 0 00-1.1-.514v1c.13 0 .25.056.334.156l.766-.642zm5.366 35.346c5.359-22.197-4.846-34.731-5.367-35.348l-.764.645c.4.475 10.416 12.69 5.16 34.468l.971.235zm15.64 6.407c-.06-.223-.563-1.785-2.836-3.39-2.265-1.599-6.258-3.22-13.26-3.633l-.06.998c6.878.407 10.674 1.991 12.744 3.453 2.063 1.456 2.441 2.811 2.447 2.832l.965-.26zm.017.091a.756.756 0 00-.014-.08l-.97.24a.396.396 0 01-.01-.043v-.008l.994-.109zm-.01-.05c.006.02.008.036.009.043v.007l-.993.11a.518.518 0 00.014.08l.97-.24zm.024.137l-.014-.092-.989.15.014.093.989-.15zm.015.175c0-.074-.01-.142-.015-.17l-.99.14.003.021.002.012V43.5h1zm-.003-.047l.001.008.002.04h-1l.002.053.003.022.992-.123zm.001.011v-.006l-.994.114.001.006.993-.114zm.004.065a.558.558 0 00-.003-.056l-.995.097a.393.393 0 01-.002-.041h1zm-.004.077a.774.774 0 00.004-.077h-1l.001-.022.995.099zm-.004.034l.004-.034-.995-.1v.002l-.001.008.992.124zm0 .005v-.005l-.992-.124v.006l.992.123zm-.02.144c.016-.073.02-.146.022-.17l-.997-.07-.002.021-.001.014v-.002l.979.207zm-.022.102c.006-.025.019-.073.027-.124l-.987-.163a.708.708 0 01-.01.047l.97.24zm-.012.044l.005-.018-.956-.292a1.58 1.58 0 00-.012.038l.963.272zm-.04.117c.022-.052.035-.101.04-.117l-.963-.271a1.11 1.11 0 00-.005.017l.005-.01.924.381zm-18.82-5.005h-2.43v1h2.43v-1zM38.377 5.48c2.696 4.639 7.691 16.41 2.385 33.92l.957.29c5.404-17.834.324-29.892-2.478-34.713l-.864.503zm.932 34.066V5.23h-1v34.317h1zm-1.881 0V5.479h-1v34.068h1zm-2.793.5h2.293v-1h-2.293v1zm1.858-34.814c-2.822 4.99-7.636 16.97-2.337 34.459l.957-.29c-5.203-17.17-.469-28.867 2.25-33.677l-.87-.492zm19.634 39.023l-.004.016.955.296.004-.015-.955-.297zm.542.644l-.13-.991.13.991zm.365-2.22c-.579.514-.799 1.226-.907 1.576l.955.297c.112-.362.268-.817.616-1.124l-.664-.749zM43.476 39c9.453.491 12.575 3.188 13.495 4.363l.788-.617C56.596 41.262 53.147 38.5 43.528 38l-.052.998zm-.172 1.938c.246-.78.471-1.547.68-2.305l-.964-.266a62.414 62.414 0 01-.67 2.27l.954.301zM41.93 41.95c.63 0 1.183-.413 1.373-1.011l-.954-.302a.443.443 0 01-.42.313v1zm-7.991 0h7.99v-1h-7.99v1zm-1.373-1.011c.19.598.742 1.01 1.373 1.01v-1a.443.443 0 01-.42-.312l-.953.302zm-.633-2.148c.197.704.405 1.419.633 2.146l.954-.298c-.224-.716-.43-1.42-.623-2.117l-.964.269zm-9.074 3.656c.813-.635 1.725-1.308 3.166-1.898 1.447-.593 3.45-1.11 6.437-1.395l-.094-.995c-3.059.29-5.162.825-6.721 1.464-1.566.642-2.562 1.38-3.403 2.036l.615.788zm.168-.165l.02-.164-.99-.13-.023.169.992.125zm-.036.274l.035-.274-.992-.125a8.5 8.5 0 01-.034.261l.99.138zm-.2 2.237c-.026-.513.105-1.524.2-2.24L22 42.421c-.089.67-.24 1.795-.209 2.421l1-.05zm-.275-.967c-.298.406-.413.521-.48.562l.51.86c.276-.164.509-.466.776-.83l-.806-.592zm.004-.006l-.003.004.803.596.004-.005-.804-.595zm2.87-1.74c-1.602 0-2.395 1.1-2.87 1.74l.804.595c.49-.66 1.013-1.335 2.066-1.335v-1zm2.868 1.74c-.474-.64-1.268-1.74-2.868-1.74v1c1.052 0 1.575.675 2.065 1.335l.803-.595zm.003.004l-.003-.004-.803.595.003.005.803-.596zm.56.577a.187.187 0 01-.062-.007.195.195 0 01-.056-.037c-.088-.073-.209-.217-.44-.532l-.806.594c.22.298.41.543.606.706.235.196.477.276.759.276v-1zm.56-.577c-.233.315-.354.46-.442.533a.193.193 0 01-.056.037.183.183 0 01-.061.007v1c.282 0 .523-.08.758-.276.195-.163.385-.408.605-.705l-.803-.596zm.004-.004l-.003.004.803.596.003-.005-.803-.595zm2.87-1.74c-1.602 0-2.396 1.1-2.87 1.74l.803.595c.49-.66 1.013-1.335 2.067-1.335v-1zm2.868 1.74c-.474-.64-1.268-1.74-2.868-1.74v1c1.051 0 1.575.675 2.064 1.335l.804-.595zm.003.004l-.003-.004-.803.596.003.004.803-.596zm.56.577a.18.18 0 01-.06-.007.195.195 0 01-.056-.037c-.088-.074-.21-.218-.444-.533l-.803.596c.22.298.411.542.607.705.233.195.475.276.756.276v-1zm.56-.577c-.233.315-.355.46-.442.533a.19.19 0 01-.056.037.182.182 0 01-.062.007v1c.283 0 .524-.08.759-.276.195-.163.385-.408.605-.705l-.803-.596zm2.872-1.744c-1.606 0-2.4 1.105-2.872 1.745l.805.594c.487-.66 1.01-1.34 2.067-1.34v-1zm2.867 1.74c-.474-.64-1.267-1.74-2.867-1.74v1c1.05 0 1.574.675 2.064 1.335l.803-.595zm.004.004l-.004-.004-.803.595.003.005.803-.596zm.562.579a.183.183 0 01-.062-.007.192.192 0 01-.057-.037c-.088-.073-.21-.218-.443-.534l-.804.594c.22.3.411.545.607.708.235.196.477.276.76.276v-1zm.56-.576c-.233.315-.355.46-.443.533a.194.194 0 01-.055.037.185.185 0 01-.062.006v1c.282 0 .524-.08.758-.276.195-.163.385-.407.606-.705l-.804-.595zm.004-.005l-.004.005.804.595.003-.004-.803-.596zm2.87-1.74c-1.602 0-2.396 1.1-2.87 1.74l.803.596c.49-.66 1.013-1.336 2.067-1.336v-1zm2.867 1.74c-.474-.639-1.267-1.74-2.867-1.74v1c1.051 0 1.574.675 2.064 1.336l.803-.596zm.004.005l-.004-.005-.803.596.003.004.804-.595zm.56.576a.184.184 0 01-.062-.007.196.196 0 01-.057-.037c-.087-.073-.209-.217-.44-.531l-.805.593c.22.298.41.543.605.706.235.196.477.276.759.276v-1zm.562-.578c-.233.316-.355.46-.443.534a.192.192 0 01-.057.037.183.183 0 01-.062.007v1c.282 0 .524-.08.759-.276.196-.163.386-.409.607-.708l-.804-.594zm2.871-1.745c-1.603 0-2.399 1.105-2.871 1.745l.804.594c.488-.66 1.014-1.34 2.067-1.34v-1zm2.87 1.74c-.474-.64-1.267-1.74-2.87-1.74v1c1.054 0 1.578.675 2.067 1.335l.803-.595zm.004.004l-.004-.004-.803.595.003.005.804-.596zm.56.577a.178.178 0 01-.06-.007.195.195 0 01-.057-.037c-.088-.074-.21-.218-.443-.533l-.803.596c.22.298.41.542.606.705.234.195.475.276.757.276v-1zm.144.483a42.728 42.728 0 01-.2-.458l.001-.001.004-.002.007-.003a.347.347 0 01.065-.02c.011-.002.006 0-.021 0v1a1.125 1.125 0 00.28-.035.627.627 0 00.034-.011l.016-.006.008-.003.004-.002h.002v-.001h.001l-.201-.458zm-.306-.612a8.102 8.102 0 01-.116.344l-.003.006a.402.402 0 01.044-.063l.76.65a.737.737 0 00.118-.2c.021-.048.04-.102.058-.151.035-.1.07-.211.094-.29l-.956-.296z" fill="#222532"/><path d="M7.288 31.136c-.12-.145-1.21-1.405-2.608-1.405-.646 0-1.57.268-2.297 1.542l-.812 1.424h7.02l-1.303-1.561z" fill="#fff" stroke="#222532"/><path fill-rule="evenodd" clip-rule="evenodd" d="M5.464 34.575l.966.102-.122.973c-.355 2.63-3.102 5.404-3.22 5.522l-1.272 1.272-.315-1.78c-.374-2.093-.108-3.702.788-4.782 1.253-1.512 3.175-1.307 3.175-1.307zM3.735 37.1a2.046 2.046 0 00-.378.752c.2-.301.392-.617.557-.935a1.64 1.64 0 00-.179.183z" fill="#fff"/><path d="M6.43 34.677l.497.062.063-.506-.507-.054-.053.498zm-.966-.102l-.053.497.053-.498zm.844 1.075l.496.067v-.005l-.496-.062zm-3.22 5.522l.354.354.002-.002-.355-.352zm-1.272 1.272l-.492.087.167.945.679-.678-.354-.354zm-.315-1.78l.493-.087-.493.087zm.788-4.782l.385.32-.385-.32zm1.068 1.97l-.48-.14-.054.186.085.174.449-.22zm.378-.752l.384.32.003-.003-.387-.317zm-.378.752l-.45.22.385.783.481-.727-.416-.276zm.557-.935l.444.23-.777-.603.333.373zm2.569-2.738l-.967-.102-.105.995.967.102.105-.995zm.321 1.533l.123-.973-.993-.125-.122.973.992.125zm-3.36 5.812c.067-.068.804-.812 1.571-1.88.759-1.054 1.594-2.487 1.789-3.927l-.991-.134c-.161 1.19-.876 2.458-1.61 3.477a15.357 15.357 0 01-1.47 1.76l.71.704zM2.17 42.798l1.272-1.272-.707-.708-1.272 1.273.707.707zM1.009 40.75l.315 1.78.985-.174-.315-1.78-.985.174zm.895-5.188c-1.03 1.24-1.281 3.026-.895 5.19l.984-.177c-.361-2.023-.081-3.456.68-4.374l-.769-.64zm3.56-.989l.052-.497h-.012l-.023-.003a3.91 3.91 0 00-.348-.008c-.225.005-.537.03-.892.107-.71.154-1.618.523-2.337 1.39l.77.638c.535-.645 1.215-.929 1.778-1.05a3.765 3.765 0 01.903-.083l.048.003h.01s0 .001 0 0h-.001l.052-.496zm-1.627 3.418a1.55 1.55 0 01.282-.571l-.767-.642a2.548 2.548 0 00-.475.933l.96.28zm-.031-.36l-.898.44.898-.44zm-.336-.945a9.695 9.695 0 01-.53.889l.833.552c.207-.31.41-.642.585-.981l-.888-.46zm.652.73c.034-.041.074-.082.125-.127l-.666-.746a2.135 2.135 0 00-.232.239l.773.634z" fill="#222532"/><path fill-rule="evenodd" clip-rule="evenodd" d="M12.707 29.291c0 .992-.802 1.8-1.785 1.8a1.793 1.793 0 01-1.783-1.8c0-.992.8-1.799 1.783-1.799.985 0 1.785.807 1.785 1.8zm-1.687 0a.1.1 0 00-.098-.1.098.098 0 00-.097.1c0 .11.195.11.195 0z" fill="#fff"/><path d="M10.922 31.59a2.295 2.295 0 002.285-2.299h-1c0 .72-.582 1.3-1.285 1.3v1zm-2.283-2.299a2.293 2.293 0 002.283 2.3v-1a1.293 1.293 0 01-1.283-1.3h-1zm2.283-2.299a2.293 2.293 0 00-2.283 2.3h1c0-.72.58-1.3 1.283-1.3v-1zm2.285 2.3a2.293 2.293 0 00-2.285-2.3v1c.705 0 1.285.58 1.285 1.3h1zm-2.285.4a.4.4 0 01-.402-.4h1a.6.6 0 00-.598-.6v1zm.403-.4c0 .2-.161.4-.403.4v-1a.598.598 0 00-.597.6h1zm-.805 0c0-.143.072-.267.171-.34a.387.387 0 01.232-.079c.06 0 .147.016.232.079.098.073.17.197.17.34h-1c0 .196.097.36.232.461a.613.613 0 00.732 0 .573.573 0 00.231-.462h-1z" fill="#222532"/></svg>